<?xml version="1.0" encoding="UTF-8" standalone="no"?>
<!-- Created with Inkscape (http://www.inkscape.org/) -->

<svg
   xmlns:dc="http://purl.org/dc/elements/1.1/"
   xmlns:cc="http://creativecommons.org/ns#"
   xmlns:rdf="http://www.w3.org/1999/02/22-rdf-syntax-ns#"
   xmlns:svg="http://www.w3.org/2000/svg"
   xmlns="http://www.w3.org/2000/svg"
   xmlns:sodipodi="http://sodipodi.sourceforge.net/DTD/sodipodi-0.dtd"
   xmlns:inkscape="http://www.inkscape.org/namespaces/inkscape"
   width="210mm"
   height="297mm"
   viewBox="0 0 744.09448819 1052.3622047"
   id="svg2"
   version="1.1"
   inkscape:version="0.91 r13725"
   sodipodi:docname="icons.svg">
  <defs
     id="defs4" />
  <sodipodi:namedview
     id="base"
     pagecolor="#ffffff"
     bordercolor="#666666"
     borderopacity="1.0"
     inkscape:pageopacity="0.0"
     inkscape:pageshadow="2"
     inkscape:zoom="0.98994949"
     inkscape:cx="250.2845"
     inkscape:cy="531.68048"
     inkscape:document-units="px"
     inkscape:current-layer="layer1"
     showgrid="true"
     showguides="true"
     objecttolerance="10000"
     guidetolerance="10000"
     inkscape:window-width="1920"
     inkscape:window-height="1033"
     inkscape:window-x="-4"
     inkscape:window-y="-4"
     inkscape:window-maximized="1"
     inkscape:object-nodes="true">
    <inkscape:grid
       type="xygrid"
       id="grid4136" />
  </sodipodi:namedview>
  <metadata
     id="metadata7">
    <rdf:RDF>
      <cc:Work
         rdf:about="">
        <dc:format>image/svg+xml</dc:format>
        <dc:type
           rdf:resource="http://purl.org/dc/dcmitype/StillImage" />
        <dc:title />
      </cc:Work>
    </rdf:RDF>
  </metadata>
  <g
     inkscape:label="Layer 1"
     inkscape:groupmode="layer"
     id="layer1">
    <circle
       style="fill:#26603b;fill-opacity:1;stroke:none"
       id="path4138"
       cx="165"
       cy="402.36221"
       r="20" />
    <path
       style="fill:#000000;fill-rule:evenodd;stroke:none;stroke-width:1px;stroke-linecap:butt;stroke-linejoin:miter;stroke-opacity:1;fill-opacity:1"
       d="m 155,437.3622 0,-10 -20,-25 -10,-20 -50,5 5,10 35,0 5,15 -65,10 -10,15 z"
       id="path4159"
       inkscape:connector-curvature="0" />
    <path
       style="fill:none;fill-opacity:1;fill-rule:evenodd;stroke:#ffffff;stroke-width:12;stroke-linecap:butt;stroke-linejoin:miter;stroke-miterlimit:4;stroke-dasharray:none;stroke-opacity:1"
       d="m 42.222079,440.32024 15,-5 15,5 15.000005,-5 15.000006,5 15,-5 15,5 15,-5 15,5 15,-5"
       id="path4142"
       inkscape:connector-curvature="0" />
    <path
       style="fill:none;fill-opacity:1;fill-rule:evenodd;stroke:#000000;stroke-width:12;stroke-linecap:butt;stroke-linejoin:miter;stroke-miterlimit:4;stroke-dasharray:none;stroke-opacity:1"
       d="m 42.535893,447.35849 15.000001,-5 15,5 15,-5 14.999996,5 15,-5 15,5 15,-5 15,5 15,-5"
       id="path4142-9"
       inkscape:connector-curvature="0" />
    <circle
       style="fill:#26603b;fill-opacity:1;stroke:none"
       id="path4138-5"
       cx="337.008"
       cy="372.33246"
       r="20" />
    <circle
       style="fill:#000000;fill-opacity:1;stroke:none;stroke-width:12;stroke-miterlimit:4;stroke-dasharray:none;stroke-opacity:1"
       id="path4184"
       cx="351.78574"
       cy="441.64792"
       r="30" />
    <circle
       style="fill:#000000;fill-opacity:1;stroke:none;stroke-width:12;stroke-miterlimit:4;stroke-dasharray:none;stroke-opacity:1"
       id="path4184-6"
       cx="261.78574"
       cy="441.29074"
       r="30" />
    <path
       style="fill:#000000;fill-opacity:1;fill-rule:evenodd;stroke:none;stroke-width:1px;stroke-linecap:butt;stroke-linejoin:miter;stroke-opacity:1"
       d="m 357.14286,396.64791 5,5 -5,5 -35.17857,0.53571 -4.82143,-5 -8.92857,5 3.92857,8.75 10.71429,5.89286 -15.35715,40.53572 -10,4.28571 4.82143,-39.64286 L 277.14286,406.64791 295,387.3622 l 17.32143,-10.89286 15,20 z"
       id="path4201"
       inkscape:connector-curvature="0"
       sodipodi:nodetypes="cccccccccccccccc" />
    <circle
       style="fill:#26603b;fill-opacity:1;stroke:none"
       id="path4138-5-0"
       cx="518.99243"
       cy="355.2886"
       r="20" />
    <path
       style="fill:#000000;fill-opacity:1;fill-rule:evenodd;stroke:none;stroke-width:1px;stroke-linecap:butt;stroke-linejoin:miter;stroke-opacity:1"
       d="m 503.57143,374.50505 -30,-15 -25,35 5,10 24.64286,-27.5 5.35714,8.92857 -10.35714,29.64286 18.57143,33.92857 -13.31889,30.08666 10.27048,-5.25254 19.83412,-24.83412 -15,-25 20,-25 20,15 35,-30 -15,0 -20,15 -15,-15 z"
       id="path4218"
       inkscape:connector-curvature="0"
       sodipodi:nodetypes="ccccccccccccccccccc" />
    <path
       style="fill:#000000;fill-opacity:1;fill-rule:evenodd;stroke:none;stroke-width:1px;stroke-linecap:butt;stroke-linejoin:miter;stroke-opacity:1"
       d="m 473.57143,424.50505 10,15 -25,50 -10,0 25,-65"
       id="path4228"
       inkscape:connector-curvature="0" />
    <rect
       style="fill:none;fill-opacity:1;stroke:#994848;stroke-width:4;stroke-miterlimit:4;stroke-dasharray:none;stroke-opacity:1"
       id="rect4230"
       width="180"
       height="180"
       x="20.714285"
       y="325.21936" />
    <rect
       style="fill:none;fill-opacity:1;stroke:#994848;stroke-width:4;stroke-miterlimit:4;stroke-dasharray:none;stroke-opacity:1"
       id="rect4230-8"
       width="180"
       height="180"
       x="214.28571"
       y="324.50507" />
    <rect
       style="fill:none;fill-opacity:1;stroke:#994848;stroke-width:4;stroke-miterlimit:4;stroke-dasharray:none;stroke-opacity:1"
       id="rect4230-3"
       width="180"
       height="180"
       x="410.71429"
       y="322.36221" />
  </g>
</svg>
